<?xml version="1.0" encoding="UTF-8"?>
<svg id="Layer_1" xmlns="http://www.w3.org/2000/svg" xmlns:xlink="http://www.w3.org/1999/xlink" version="1.1" viewBox="0 0 692 640.6">
  <!-- Generator: Adobe Illustrator 29.5.1, SVG Export Plug-In . SVG Version: 2.1.0 Build 141)  -->
  <defs>
    <style>
      .st0, .st1, .st2, .st3, .st4, .st5, .st6, .st7, .st8 {
        fill: none;
      }

      .st1, .st2, .st3, .st4, .st5, .st6, .st7, .st8 {
        stroke-miterlimit: 10;
      }

      .st1, .st2, .st3, .st6, .st8 {
        stroke-width: 4px;
      }

      .st1, .st8 {
        stroke: #666;
      }

      .st2, .st4 {
        stroke: #e74e09;
      }

      .st3 {
        stroke: #5f6162;
      }

      .st9, .st10, .st11 {
        isolation: isolate;
      }

      .st9, .st11 {
        opacity: .3;
      }

      .st4 {
        stroke-width: 3px;
      }

      .st10 {
        opacity: .4;
      }

      .st12 {
        fill: url(#linear-gradient2);
      }

      .st13 {
        fill: url(#linear-gradient1);
      }

      .st14 {
        fill: url(#linear-gradient9);
      }

      .st15 {
        fill: url(#linear-gradient3);
      }

      .st16 {
        fill: url(#linear-gradient6);
      }

      .st17 {
        fill: url(#linear-gradient8);
      }

      .st18 {
        fill: url(#linear-gradient7);
      }

      .st19 {
        fill: url(#linear-gradient5);
      }

      .st20 {
        fill: url(#linear-gradient4);
      }

      .st21 {
        fill: url(#linear-gradient12);
      }

      .st22 {
        fill: url(#linear-gradient11);
      }

      .st23 {
        fill: url(#linear-gradient10);
      }

      .st24 {
        fill: #5f6162;
      }

      .st25 {
        fill: url(#radial-gradient);
      }

      .st26 {
        fill: url(#linear-gradient);
      }

      .st5 {
        stroke: #4d4d4d;
        stroke-width: 5px;
      }

      .st5, .st7, .st8 {
        stroke-linecap: round;
      }

      .st6 {
        stroke: #f48c00;
      }

      .st27 {
        fill: #f4eecb;
      }

      .st28 {
        fill: #4d4d4d;
      }

      .st29 {
        fill: #414547;
      }

      .st30 {
        fill: #f48c00;
      }

      .st31 {
        clip-path: url(#clippath-1);
      }

      .st32 {
        clip-path: url(#clippath-3);
      }

      .st33 {
        clip-path: url(#clippath-2);
      }

      .st34 {
        fill: #f4d2a0;
      }

      .st7 {
        stroke: #333;
        stroke-width: 6px;
      }

      .st35 {
        fill: #fff;
      }

      .st36 {
        fill: #fbcb50;
      }

      .st37 {
        fill: #f2e2d2;
      }

      .st11 {
        fill: #7f6c52;
      }

      .st38 {
        fill: #9e9e9e;
      }

      .st39 {
        fill: #e74e09;
      }

      .st40 {
        fill: #f1f2f3;
      }

      .st41 {
        fill: #353535;
      }

      .st42 {
        fill: #f07500;
      }

      .st43 {
        fill: #0e1013;
      }

      .st44 {
        clip-path: url(#clippath);
      }
    </style>
    <clipPath id="clippath">
      <path class="st0" d="M375.8,275.7c0-4.6,3.7-8.3,8.3-8.4h89.7v372.9h-98v-364.6Z"/>
    </clipPath>
    <linearGradient id="linear-gradient" x1="-61634.8" y1="-13410" x2="-61734" y2="-13537.8" gradientTransform="translate(62080.9 -13213.1) scale(1 -1)" gradientUnits="userSpaceOnUse">
      <stop offset="0" stop-color="#0b0d11"/>
      <stop offset="1" stop-color="#343839"/>
    </linearGradient>
    <linearGradient id="linear-gradient1" x1="-61311.9" y1="-13404.1" x2="-61849" y2="-13538.1" gradientTransform="translate(62080.9 -13213.1) scale(1 -1)" gradientUnits="userSpaceOnUse">
      <stop offset="0" stop-color="#0b0d11"/>
      <stop offset="0" stop-color="#0b0d11"/>
      <stop offset=".6" stop-color="#292c2e"/>
      <stop offset=".9" stop-color="#343839"/>
    </linearGradient>
    <linearGradient id="linear-gradient2" x1="-61709.1" y1="-13515.3" x2="-61298.3" y2="-13807.7" gradientTransform="translate(62080.9 -13213.1) scale(1 -1)" gradientUnits="userSpaceOnUse">
      <stop offset="0" stop-color="#0b0d11"/>
      <stop offset=".1" stop-color="#121518"/>
      <stop offset=".7" stop-color="#2b2e30"/>
      <stop offset="1" stop-color="#343839"/>
    </linearGradient>
    <linearGradient id="linear-gradient3" x1="-61719.1" y1="-13500" x2="-61591.2" y2="-13731.3" gradientTransform="translate(62080.9 -13213.1) scale(1 -1)" gradientUnits="userSpaceOnUse">
      <stop offset="0" stop-color="#0b0d11"/>
      <stop offset=".4" stop-color="#242729"/>
      <stop offset=".6" stop-color="#2f3234"/>
      <stop offset=".7" stop-color="#303335"/>
      <stop offset="1" stop-color="#343839"/>
    </linearGradient>
    <linearGradient id="linear-gradient4" x1="-61798" y1="-13544.8" x2="-61617.8" y2="-13725" gradientTransform="translate(62080.9 -13213.1) scale(1 -1)" gradientUnits="userSpaceOnUse">
      <stop offset="0" stop-color="#0b0d11"/>
      <stop offset=".5" stop-color="#24272a"/>
      <stop offset=".9" stop-color="#343839"/>
    </linearGradient>
    <linearGradient id="linear-gradient5" x1="-61712.2" y1="-13696.2" x2="-61564" y2="-13773.2" gradientTransform="translate(62080.9 -13213.1) scale(1 -1)" gradientUnits="userSpaceOnUse">
      <stop offset=".1" stop-color="#0b0d11"/>
      <stop offset=".5" stop-color="#171a1d"/>
      <stop offset="1" stop-color="#343839"/>
    </linearGradient>
    <linearGradient id="linear-gradient6" x1="-61642.6" y1="-13897.4" x2="-61675.4" y2="-13709.4" gradientTransform="translate(62080.9 -13213.1) scale(1 -1)" gradientUnits="userSpaceOnUse">
      <stop offset="0" stop-color="#0b0d11"/>
      <stop offset=".3" stop-color="#111317"/>
      <stop offset=".7" stop-color="#222628"/>
      <stop offset="1" stop-color="#343839"/>
    </linearGradient>
    <linearGradient id="linear-gradient7" x1="-61191.4" y1="-13481" x2="-61573.7" y2="-13634.4" gradientTransform="translate(62080.9 -13213.1) scale(1 -1)" gradientUnits="userSpaceOnUse">
      <stop offset="0" stop-color="#0b0d11"/>
      <stop offset="0" stop-color="#111316"/>
      <stop offset="1" stop-color="#343839"/>
    </linearGradient>
    <linearGradient id="linear-gradient8" x1="-61635.7" y1="-13535.4" x2="-61240.5" y2="-13712.9" gradientTransform="translate(62080.9 -13213.1) scale(1 -1)" gradientUnits="userSpaceOnUse">
      <stop offset="0" stop-color="#0b0d11"/>
      <stop offset="0" stop-color="#111316"/>
      <stop offset="1" stop-color="#343839"/>
    </linearGradient>
    <radialGradient id="radial-gradient" cx="-61599.3" cy="-13810.6" fx="-61599.3" fy="-13810.6" r="161" gradientTransform="translate(62080.9 -13213.1) scale(1 -1)" gradientUnits="userSpaceOnUse">
      <stop offset=".2" stop-color="#0b0d11"/>
      <stop offset=".2" stop-color="#0d0f13"/>
      <stop offset=".7" stop-color="#323637"/>
      <stop offset="1" stop-color="#343839"/>
    </radialGradient>
    <linearGradient id="linear-gradient9" x1="-61480.4" y1="-13739.3" x2="-61390.7" y2="-13878.1" gradientTransform="translate(62080.9 -13213.1) scale(1 -1)" gradientUnits="userSpaceOnUse">
      <stop offset=".5" stop-color="#0b0d11"/>
      <stop offset=".6" stop-color="#171a1d"/>
      <stop offset=".9" stop-color="#343839"/>
      <stop offset="1" stop-color="#343839"/>
    </linearGradient>
    <linearGradient id="linear-gradient10" x1="-61345.9" y1="-13871.9" x2="-61489.8" y2="-13657.7" gradientTransform="translate(62080.9 -13213.1) scale(1 -1)" gradientUnits="userSpaceOnUse">
      <stop offset="0" stop-color="#0b0d11"/>
      <stop offset=".3" stop-color="#111317"/>
      <stop offset=".7" stop-color="#222628"/>
      <stop offset="1" stop-color="#343839"/>
    </linearGradient>
    <linearGradient id="linear-gradient11" x1="-61595.9" y1="-13756.9" x2="-61793.5" y2="-13904.4" gradientTransform="translate(62080.9 -13213.1) scale(1 -1)" gradientUnits="userSpaceOnUse">
      <stop offset="0" stop-color="#0b0d11"/>
      <stop offset=".5" stop-color="#24272a"/>
      <stop offset=".9" stop-color="#343839"/>
    </linearGradient>
    <linearGradient id="linear-gradient12" x1="-61503.2" y1="-13626" x2="-61412.9" y2="-14046.1" gradientTransform="translate(62080.9 -13213.1) scale(1 -1)" gradientUnits="userSpaceOnUse">
      <stop offset=".2" stop-color="#0b0d11"/>
      <stop offset=".5" stop-color="#0b0d11" stop-opacity="0"/>
    </linearGradient>
    <clipPath id="clippath-1">
      <path class="st0" d="M384,380.5v260.5h-95.8v-247.9c0-6.9,5.6-12.6,12.6-12.6h83.2Z"/>
    </clipPath>
    <clipPath id="clippath-2">
      <path class="st0" d="M448.4,640.2v-234.3c0-3.9,3.7-7.1,8.3-7.1h89.8v241.4h-98.1Z"/>
    </clipPath>
    <clipPath id="clippath-3">
      <path class="st0" d="M299.3,490.5v150.5h-95.8v-137.9c0-6.9,5.6-12.6,12.6-12.6h83.2Z"/>
    </clipPath>
  </defs>
  <path class="st30" d="M398.6,199.7l-.5,71.9h72.8l1-75.9,13.2-63.1-3.7-7.1s-56.2-56.7-68.6-65.7c-17.6,6.8-47.3,43.4-57.6,62.7l19.4,15.2s4.9,8.8,12.1,19.6c4.8,7.5,8.8,15.5,11.9,23.9v18.7Z"/>
  <path class="st42" d="M377.3,142.6s1.1.7,9.1,15.8,12.1,22.6,12.1,22.6l-.4,90.5h19.5l.2-98.2c0-4.8,0-6.6,9.8-12.4s29.9-38.5,32.3-42.5c9.1-15.4,24.1-1,24.1-1l-69.5-67-31.2,28.8-24.2,46.3,11,8.5c3,2.3,5.4,5.2,7.2,8.5Z"/>
  <path class="st42" d="M375.3,122.7l-1.1,1.3c-3.8,4.6-10.6,5.3-15.3,1.5h0s-10.3-8.5-10.3-8.5l8.5-10.3c3.8-4.6,10.6-5.3,15.3-1.5h0s1.3,1.1,1.3,1.1c5,4.1,5.7,11.4,1.6,16.4Z"/>
  <path class="st42" d="M394,82.1l-1.2,1.5c-4,4.8-11.1,5.5-16,1.6h0s-12.8-10.5-12.8-10.5l10.5-12.8c4-4.8,11.1-5.6,16-1.6h0s1.5,1.2,1.5,1.2c6.2,5.1,7.1,14.4,2,20.6Z"/>
  <path class="st42" d="M359,125.6l-10.4-8.6,8.6-10.4c2.6-3.2,6.8-4.6,10.9-3.6.7.2-5,6.6-10.4,14.9-3.3,5.1,1.4,7.7,1.4,7.7Z"/>
  <path class="st42" d="M380.3,102.2l-1.4,1.7c-4.2,5.1-11.7,5.8-16.8,1.6h0s-12.2-10.1-12.2-10.1l10.1-12.2c4.2-5.1,11.7-5.8,16.8-1.6h0s1.7,1.4,1.7,1.4c5.8,4.8,6.7,13.4,1.9,19.2Z"/>
  <path class="st42" d="M376.9,85.3l-12.9-10.6,10.6-12.9c2.9-3.5,7.5-4.9,11.8-3.6,0,0-7,8.7-12.8,15.9-3.1,3.8,5.3,13,3.2,11.3Z"/>
  <path class="st42" d="M400.4,71.6l-10.3-8.5c-.4-.3-.5-1-.2-1.4,0,0,0,0,0,0l8.5-10.4c2.7-3.2,7-4.6,11-3.6,0,0-9.9,12.2-11.8,15.2s2.8,8.6,2.8,8.6Z"/>
  <path class="st42" d="M362.3,105.6l-12.4-10.2,10.2-12.4c2.6-3.2,6.6-4.7,10.7-4.2,0,0-6.6,8.8-10.8,14.3s2.3,12.5,2.3,12.5Z"/>
  <path class="st42" d="M416.3,69.3l-.6.7c-3.8,4.6-10.6,5.3-15.2,1.5,0,0,0,0,0,0l-10.3-8.5c-.4-.3-.5-1-.2-1.4,0,0,0,0,0,0l8.5-10.3c3.8-4.6,10.6-5.3,15.2-1.5,0,0,0,0,0,0l.7.6c5.7,4.7,6.5,13.1,1.9,18.8,0,0,0,0,0,0Z"/>
  <path class="st30" d="M371.7,81l-7.7-6.3,9.7-11.8c1.8-2.2,5-2.5,7.2-.7,0,0,0,0,0,0h0c2.2,1.8,2.5,5.1.6,7.2,0,0,0,0,0,0l-9.8,11.5Z"/>
  <path class="st30" d="M357.5,101.7l-7.6-6.3,8.7-10.4c1.7-2,4.6-2.3,6.6-.6h0c2,1.7,2.4,4.6.7,6.7l-8.5,10.6Z"/>
  <path class="st30" d="M355.2,122.4l-6.5-5.4,6-7.2c1.5-1.8,4.1-2.1,5.9-.7h0c1.9,1.4,2.3,4.1.9,6.1,0,0-.1.2-.2.2l-6.1,7.1Z"/>
  <path class="st24" d="M435.8,65.4l-1,2.5c0,.2-.2.5-.2.8-.6-.2-1.2-.4-1.9-.5l-20.1-16.5c-1-.9-2.3-1.6-3.6-1.9h-.4c-3.2-.8-6.5.4-8.6,2.9l-8.9,10.8-1.8-1.4c-1-.9-2.2-1.5-3.5-1.9h-.5c-3.4-1-7,.2-9.2,3l-9.4,11.4,7.7,6.4h-5.5c-2.9.1-5.6,1.4-7.4,3.6l-8.9,10.8,11.2,9.2-2.6,1.4c-1,.5-1.8,1.2-2.5,2.1l-7.3,8.8,7.7,6.4c.2.3.5.5.8.7h0l1.6,1.2h0l9.6,7.5c3.1,2.4,5.7,5.5,7.6,8.9.4.5.8,1,1.1,1.5.5.9,1.1,1.8,1.7,2.8,1.7,2.9,3.8,6.8,6.5,11.8,7.6,14.4,11.9,22.3,12,22.4l.4.5v.6l-.4,90.5h-4.1l.4-89.9c-2.1-3.2-4.4-8.2-11.9-22.3-2.6-4.9-4.7-8.8-6.3-11.6-.6-.9-1.1-1.9-1.6-2.7-.3-.5-.5-.8-.6-.9h-.2c0-.1-.2-.6-.2-.6-1.7-3.1-3.9-5.8-6.7-7.9l-10.8-8.4c-.5-.3-.9-.6-1.3-1h-.1c0,0-.2-.3-.2-.3l-10.5-8.7,9.9-12c.4-.5.8-1,1.3-1.4l-9.9-8.2,11.5-13.9c1.5-1.9,3.6-3.3,5.9-4.2l-3.2-2.7,11.9-14.5c3.4-4.1,8.9-5.8,14-4.3,1.2.4,2.4.9,3.5,1.6l6.4-7.8c3.2-3.8,8.3-5.5,13.1-4.3,1.9.5,3.8,1.5,5.3,2.8l20.5,16.9Z"/>
  <path class="st30" d="M396.6,68.4l-6.5-5.4c-.4-.3-.5-1-.2-1.4,0,0,0,0,0,0l7.5-9.2c1.6-2,4.6-2.3,6.6-.7h0c2,1.6,2.4,4.6.7,6.6,0,0,0,0,0,0l-8.1,10Z"/>
  <rect class="st24" x="359.5" y="99.8" width="4.1" height="10.5" transform="translate(669.1 -112) rotate(128.6)"/>
  <line class="st2" x1="366.2" y1="76.5" x2="376.6" y2="85.1"/>
  <path class="st24" d="M410.9,73.7c-4.2,2-9.2,1.4-12.9-1.5l-9.3-7.6c-1.3-1-1.5-2.9-.4-4.2,0,0,0,0,0,0l8.2-10c4.6-5.6,12.7-6.7,17.9-2.3h.1c0,.1-2.6,3.3-2.6,3.3h-.1c-3.5-3-9-2.2-12.2,1.7l-7.6,9.3,8.4,6.9c3.5,2.9,9,2.1,12.2-1.8h.1c0-.1,3.1,2.4,3.1,2.4v.2c-1.5,1.6-3.2,2.9-5.1,3.8Z"/>
  <path class="st24" d="M385.7,88.3c-3.9,1-8,.2-11.2-2.4l-13.4-11,11.7-14.2,3.1,2.6-9.1,11.1,10.2,8.5c2.1,1.7,5,2.3,7.6,1.6l1,3.9Z"/>
  <path class="st41" d="M398.7,190.7l-37.7-30.5c-9-7.3-10.4-20.4-3.1-29.4l88.9-110.1c7.3-9,20.4-10.4,29.4-3.1l37.7,30.5c9,7.3,10.4,20.4,3.1,29.4l-88.9,110.1c-7.2,9-20.4,10.4-29.4,3.2,0,0,0,0,0,0Z"/>
  <path class="st35" d="M400.6,186.5l-36.2-29.3c-7.5-6.1-8.7-17.1-2.6-24.6h0s87.8-108.7,87.8-108.7c6.1-7.5,17.1-8.7,24.7-2.6l36.2,29.2c7.5,6.1,8.7,17.1,2.6,24.7l-87.8,108.7c-6.1,7.5-17.1,8.7-24.6,2.6h0Z"/>
  <path class="st41" d="M504.3,49.9l-26.1-21.1c-1.1-.9-1.3-2.5-.4-3.6h0v-.2c1-1.1,2.6-1.3,3.7-.4,0,0,0,0,0,0l26.1,21.1c1.1.9,1.2,2.4.4,3.5v.2c-1,1.1-2.6,1.3-3.7.4Z"/>
  <path class="st30" d="M436.9,86.1c-1.6,2.1-1.5,5,.3,6.9l8.9,7.2-18.2,1.5c-1.6.1-2.9,1.2-3.4,2.8-.4,1.7,0,2.9,1.7,4.2l12.8,10.3c1.3-1.7,2.1-4.5.1-6.6l-7.3-5.9,19-1.4c1.4-.2,2.6-1.2,3-2.5.4-1.6,0-2.8-1.6-4.1l-15.3-12.4ZM459,104.2c1.6-2,1.3-4.9-.7-6.5l-18.7-15.1c-2-1.6-4.9-1.3-6.5.7l-7.5,9.3-4.7,5.8c-1.5,1.9-4.9,2.1-7,.4l7.6-9.5,7.5-9.3c3.4-4.2,9.6-4.9,13.8-1.5,0,0,0,0,0,0l18.7,15.1c4.2,3.4,4.9,9.6,1.5,13.8h0l-15.1,18.7c-3.4,4.2-9.6,4.9-13.8,1.5,0,0,0,0,0,0l-9.3-7.6-9.3-7.5c-1-.8-1.8-1.8-2.5-2.9-.7-1.3-1.1-2.7-1.2-4.2,0-.7.1-1.4.6-1.9.9-1.1,2.5-1.3,3.7-.4.5.4.9,1.1,1,1.8,0,.8.2,1.5.6,2.2.3.5.7,1,1.2,1.4l9.3,7.5,9.3,7.5c2,1.6,4.9,1.3,6.5-.7l15.1-18.7Z"/>
  <path class="st30" d="M471.9,195.7c9.5-8,30.9-26.1,32.6-36.6,6.4-38.5,14-50.9,8.5-58.3-6.8-9-24.4-37.3-24.4-37.3l-2.4,1.7c-5.8,4.5-12.9,13.5-9.2,24,4.1,11.3,8.4,22,8.4,22-1.5,3.7-2.9,7.4-4,11.2-2,6.4-13.5,28.9-13.5,28.9-.9,6.9-2.3,13.8-4.3,20.4-4.9,14.6-39.4,13.2-38.2,29.4,1.6,21.5,19.1-3.9,19.1-3.9,0,0,9.1,13.8,27.4-1.5Z"/>
  <path class="st24" d="M513.7,125.4c-2,8.1-4.6,19.2-7.1,34-1.7,10-18.1,25.1-32.6,37.2l-.9,75h-4.1s1-76.9,1-76.9l.7-.6c7.5-6.3,30.2-25.4,31.9-35.4,2.5-15,5.2-26.1,7.2-34.3,3-12.4,4.5-18.6,1.7-22.4-5.9-7.7-19.4-29.1-23.4-35.6l-.6.5c-2.1,1.6-12.4,10.4-8.4,21.6s8.3,21.8,8.4,21.9l.2.6v.6c-.1,0-.7,2.4-1.8,6.1l-1.8,8.8-4.1-2.2c2.1-6.6,3.4-12.8,3.4-12.8h0c-1-2.6-4.7-11.9-8.2-21.6-.4-1-.6-2-.8-3-.3-1.8-.4-3.6-.2-5.4.7-7.4,5.6-13.8,10.9-17.9l4.2-3,1.1,1.8c.2.3,17.7,28.2,24.3,37.1,4,5.3,2.3,12.1-1,25.8Z"/>
  <path class="st40" d="M473.8,236.9h-77.8c-5.7,0-10.3,4.6-10.3,10.3h0v22.4h88v-32.6Z"/>
  <g class="st44">
    <g>
      <polygon class="st26" points="349.5 261.3 373.8 261.3 407.9 306.1 349.5 317.5 349.5 261.3"/>
      <polygon class="st13" points="373.8 261.3 600.2 261.3 407.9 306.1 373.8 261.3"/>
      <polygon class="st12" points="600.2 261.3 620.1 261.3 528.9 499.3 497.3 609.2 451.1 563 489.3 375.6 407.9 306.1 600.2 261.3"/>
      <polygon class="st15" points="349.5 317.5 407.9 306.1 489.3 375.6 349.5 406.5 349.5 317.5"/>
      <polygon class="st20" points="489.3 375.6 381.9 487.3 349.5 560.6 349.5 406.5 489.3 375.6"/>
      <polygon class="st19" points="451.1 563 359 643.2 349.5 643.2 349.5 560.6 381.9 487.3 489.3 375.6 451.1 563"/>
      <polygon class="st16" points="451.1 563 497.3 609.2 489.3 643.2 359 643.2 451.1 563"/>
      <polygon class="st18" points="620.1 261.3 686.7 423.2 731.4 446 731.4 261.3 620.1 261.3"/>
      <polygon class="st17" points="620.1 261.3 686.7 423.2 528.9 499.3 620.1 261.3"/>
      <polygon class="st43" points="686.7 423.2 731.4 446 731.4 486 528.9 499.3 686.7 423.2"/>
      <polygon class="st25" points="528.9 499.3 497.3 609.2 489.3 643.2 563 643.2 731.4 553.5 731.4 486 528.9 499.3"/>
      <polygon class="st14" points="731.4 553.5 731.4 556.6 659.6 643.2 563 643.2 731.4 553.5"/>
      <polygon class="st23" points="731.4 556.6 731.4 643.2 659.6 643.2 731.4 556.6"/>
      <polygon class="st29" points="641.3 312.5 687.1 422.9 731.4 446 686.7 423.5 607.8 461.4 686.4 423 641.3 312.5"/>
      <polygon class="st22" points="359.9 643.2 451.1 563 358.1 643.2 359.9 643.2"/>
      <polygon class="st21" points="528.9 499.3 497.3 609.2 489.3 643.2 563 643.2 731.4 553.5 731.4 486 528.9 499.3"/>
    </g>
  </g>
  <path class="st10" d="M375.8,277.4v362.9h23.7l-.8-372.9h-15.2c-4.4,0-7.7,5.6-7.7,10Z"/>
  <path class="st1" d="M473.8,236.9h-79.6c-4.6,0-8.4,3.8-8.4,8.4v24.3"/>
  <path class="st1" d="M375.8,640.2v-362.5c0-4.6,3.7-8.3,8.3-8.3h56.5"/>
  <path class="st30" d="M458.3,255.7c4.5-.5,8.7,2.5,9.5,6.9l3.4,17.2v-51h6.2c7.5-.2,13.6,5.7,13.8,13.2v13.4l21.1-42.2,7.4,3.5c5.2,2.4,7.6,8.5,5.3,13.8,0,0-10.2,18.3-11.9,28.5-1,5.5-1.4,11.1-1.1,16.7,0,0,7.4-7.3,12.1-10.5,10.8-7.4,11.7-11.3,18.4-11.6,8.6-.4,26.9-1.8,26.9-1.8,0,0,.3,2.9.3,5.3,0,2.1-.6,4.1-1.7,5.9-1.5,2.8-4.7,3.5-9.3,4.7-3.7,1-14.6,6.3-16.1,6.7s-13.3,10.1-17.2,18.3c-3,6.2-2.3,12.3-2.2,20.9.2,12.4,9.3,21.1,20.6,21.1.3,0,.5,0,.8,0,9.4-1.2,18.6-4.2,20.9-8.5,1.2-2.1,7.3-8.7,11.9-12.9s18.5-.3,18.5-.3c0,0-7.6,20.4-10.6,27.9s-4.5,10.6-13.6,16.7c-13,8.7-29.9,12.1-37.7,15.2v77.8h-68.5v-70.4l-.2-63.4-9.4-60.7,2.4-.3Z"/>
  <path class="st42" d="M497.5,261.7s-2.9,81.8-2.9,94.1-6.3,13.7-6.3,29-.2,65.8-.2,65.8h-22.4v-70.4l-.3-63.4-9.4-60.7s8.1-2.6,10.9,3.9c2.4,5.7,4.4,23.5,4.4,23.5v-54.6h6.2c0-.1,9.2-.3,12.5,7.7,2.6,6.3-.6,20.6-.6,23.9,0,16.8,8.2,1.2,8.2,1.2Z"/>
  <circle class="st36" cx="572.1" cy="290" r="23"/>
  <circle class="st6" cx="572.1" cy="290" r="23"/>
  <line class="st6" x1="588.6" y1="292.9" x2="572.2" y2="292.9"/>
  <path class="st42" d="M569.4,251.9l-30.4,1.7-29.5,28.8s3.4,2,7.2-1.2,25.3-21.6,25.3-21.6l27.8-2.4-.3-5.3Z"/>
  <line class="st6" x1="588.6" y1="287.1" x2="572.2" y2="287.1"/>
  <path class="st42" d="M487.7,294.8c5.6.6,6.8-6.8,6.8-6.8l2.9-26.4,21.2-44.9-6.4-3.5-21.3,47-3.4,26.8v7.6Z"/>
  <path class="st1" d="M465.5,450.6v-70.4l-.2-63.4-9.4-60.7,2.4-.3c4.5-.5,8.7,2.5,9.5,6.9l3.4,17.2v-51h6.2c7.5-.2,13.6,5.7,13.8,13.2v13.4l21.1-42.1,7.4,3.5c5.2,2.4,7.6,8.5,5.3,13.8,0,0-10.2,18.3-11.9,28.5-1.1,6.2-1.6,12.5-1.8,18.9,0,0,24.4-23.7,31.1-24.3,10.2-1,26.9-1.8,26.9-1.8.3,2.8.3,5.7,0,8.5-.6,3.6-5.9,8.1-10.6,9.3-3.7,1-8.7.7-16.3,4.8s-13.8,11.4-17.6,19.5c-3,6.2-1.9,11-1.7,19.6.2,12.4,7.3,20.1,18.6,20.1h.8c11-.2,20.3-4.6,23.6-8.2,2.9-3.1,4.8-7.8,9.9-11.4,7.8-5.4,19.8-1.2,19.8-1.2,0,0-7.6,20.4-10.6,27.9h0c-5,13.6-10.7,14.6-22,21.7-13.3,8.3-21.4,7.1-29.2,10.2h0v77.8c0,0,0-1,0-1"/>
  <line class="st1" x1="471.2" y1="274.9" x2="471.2" y2="285.5"/>
  <polyline class="st1" points="493.1 251.7 489.3 260.5 486.7 294.8"/>
  <path class="st6" d="M565,280.2c5.4-3.8,12.9-2.6,16.7,2.9,3.8,5.4,2.6,12.9-2.8,16.7-4.2,3-9.7,3-13.9,0"/>
  <path class="st30" d="M376.2,211.1h-7.5c-2.8.1-7.3.4-10.2,3.2-2.5,2.6-4.1,5.9-4.5,9.5-.7,5.4-2.5,32.6-2.5,32.6,0,0-29.2-44.7-36.7-59.4s-51.7,63.9-44.6,80.9c9.8,23.1,22.4,45.6,35.2,56.9l.7,14.1-2.3,72.1h71.1c0-.1.1-85.7.6-97.3s4-25.9,4-43.4-3.3-69.2-3.3-69.2Z"/>
  <path class="st30" d="M302.3,167.4l49.2,89.1-31-6.5-.3-.6-29.5-63c-1.4-3.4-1.9-7.1-.4-10.3,1-2,2.6-3.6,4.6-4.6l7.3-4.1Z"/>
  <path class="st42" d="M290.4,176.1l32.3,63.2c3.4,7.1.2,8.7.2,8.7l-2.6,1.4-29.5-63c-1.4-3.5-1.9-7.2-.4-10.3Z"/>
  <path class="st30" d="M282.1,166.6l41.1,81.9-19.8,10.5-.7-1.4-32.7-65.6c-.1-.3-.3-.6-.4-.9s-.2-.5-.3-.7c-1.6-4.3-1.5-9,.4-13.2,1.4-3.4,3.9-6.1,7.1-7.9l5.3-2.8Z"/>
  <path class="st42" d="M302.8,257.7l.7,1.4s-2.8,2.1-.7-1.4Z"/>
  <path class="st42" d="M269.7,177.3c2.5,5,24.9,49.2,33.5,67.9,2.2,4.7,2.6,7.9-.1,12-.1.2-.2.3-.3.5l-32.7-65.6c-.1-.3-.3-.6-.4-.9s-.2-.5-.3-.7c-1.6-4.3-1.5-9,.4-13.2Z"/>
  <path class="st30" d="M265.4,179l38.8,79.6-22.4,11.9-27.7-67.1c-.1-.2-.2-.5-.4-.7-1.5-3.7-1.6-7.8-.3-11.5,1.4-4.4,4.5-8.1,8.5-10.4l3.5-1.9Z"/>
  <path class="st42" d="M253.4,191.3c3.5,7,27.1,54,34.2,69.5,1.1,2.4.7,5.9-1.3,7.4-.1.1-.3.2-.5.3l-.4.2h0l-31.3-65.2c-.1-.2-.2-.5-.4-.7-1.5-3.7-1.6-7.8-.3-11.5Z"/>
  <path class="st30" d="M268.9,277.9l17.1-9.6-30.9-64.3-6,3.2c-5.8,3.1-8.6,11.2-5.3,17.6l25.1,53.1Z"/>
  <path class="st42" d="M349,311.1s-18.2,11.7-31.5,12.4c-17,1-28.9-16.3-36.8-34.1l-35.1-79.4c-3.4,4.1-4.1,9.9-1.8,14.8l46.6,100.8c5.6,13.5,12.9,25,12.9,43.8s.3,51.7.3,51.7h23.9l-.2-49.9c0-1.6-.1-13.9,0-21.7.4-16.9,27.3-20.9,21.7-38.4Z"/>
  <line class="st3" x1="254.4" y1="204.4" x2="286.2" y2="268.2"/>
  <line class="st3" x1="268.2" y1="184.9" x2="303" y2="255.3"/>
  <line class="st3" x1="289.4" y1="181.1" x2="320.6" y2="244.2"/>
  <path class="st5" d="M212,231.9c-.9,10.3,3.8,28.2,9.8,37.8,9.4,15.1,21.2,21.9,21.2,21.9"/>
  <path class="st5" d="M227.2,242.7c-.4,5.1,2.9,15.1,5.9,19.9,2.6,4.3,6,8.1,10.1,11"/>
  <path class="st3" d="M376.2,211.1h-7.5c-2.8.1-7.3.4-10.2,3.2-2.5,2.6-4.1,5.9-4.5,9.5-.7,5.4-2.5,32.6-2.5,32.6l-49.2-89.1-7.3,4.1c-2,1-3.6,2.6-4.6,4.6-.7,1.6-1.1,3.3-.9,5.1l-7.3-14.6-5.3,2.8c-3.2,1.8-5.7,4.5-7.1,7.9-1,2.4-1.5,5-1.5,7.6l-2.9-5.9-3.5,1.9c-4,2.3-7.1,6-8.5,10.4-1.3,3.7-1.2,7.8.3,11.5.1.2.7,1.6.7,1.6l-5.2,2.8c-2.9,1.5-5.2,3.9-6.4,6.9-1.8,5,1,10.5,1.1,10.7l46.6,100.9c5.6,13.5,12.9,25,12.9,43.8s.3,51.7.3,51.7h71.1c0,0,.1-85.6.6-97.3s4-25.9,4-43.4-3.3-69.2-3.3-69.2Z"/>
  <path class="st5" d="M146.7,642.3s-17.8-34.4,15.3-98c39.1-75.2-23.8-116.4-52.4-102.6-29.5,20.2-24.2,52.8,2.5,58.5,37.7,8,44.3-81,44.3-81"/>
  <path class="st30" d="M229.5,320.5c-4.1,1.8-6.2,6.6-4.6,10.8l5.9,16.5-26.1-43.8-5.4,3.1c-6.5,3.7-8.7,12-5,18.5,0,0,0,.1.1.2l6.8,11.3-39.8-25.4-4.6,6.8c-3.2,4.8-2.1,11.2,2.5,14.6,0,0,18.1,10.5,24.8,18.4s13.2,20.2,13.2,20.2c-3.9-1.5-7.9-2.5-12-2.9-13-.8-21.2,7.2-25.8,15s-8,28.5-8,28.5c0,0,1.3,5.6,7,18.9s17.2,25,33.7,27.7c15.5,2.5,24.8,3.6,33.1,2.3l-1.2,78.4h65.4v-76.5c0-21.9-2.6-48.3-13.1-67.8s-19.1-32.6-19.1-32.6l-25.8-43.4-2.2,1ZM201.4,428.4c-9.7,5.8-20.7,4.9-27.1-5.8-1.2-2.1-1.1-2.2-3.5-6s-6.5-4.5-9-5c1.8-.5,3.5-1.4,4.8-2.8,3.6-3.9,2-11.2,11.8-17s22.7-1.9,29.1,8.8,3.6,22-6,27.8Z"/>
  <path class="st42" d="M153.3,321.8c-1.1,4.2.5,8.7,4,11.3,0,0,18.1,10.5,24.8,18.4s13.6,22.5,13.6,22.5l10.7,4.6s-9.5-18.6-18.4-30.7-34.5-27.2-34.8-26Z"/>
  <path class="st42" d="M191.3,314.3c-1.4,3.8-1,8.1,1.1,11.5l6.8,11.3h0l24.3,27.8-15.2-21.9-16.9-28.7Z"/>
  <path class="st42" d="M223.7,323.7c-.8,1.9-1.6,5.5-.8,7.5l5.9,16.5,6.6,5.3s-11.3-30.3-11.7-29.3Z"/>
  <path class="st42" d="M149.6,412.4s1.3,5.6,7,18.9,17.2,25,33.7,27.7c15.5,2.5,24.8,3.6,33.1,2.3l-1.2,78.4h21.4v-101s-22,8-35,10.3-22.1-.8-34.4-8.3c-12.2-7.5-24.7-28.4-24.7-28.4Z"/>
  <path class="st1" d="M223.4,367.3l-29.1-33.2-35-22.3-4.6,6.8c-3.2,4.8-2.1,11.2,2.5,14.6,0,0,18.1,10.5,24.8,18.4s13.2,20.2,13.2,20.2c-3.9-1.5-7.9-2.5-12-2.9-13-.8-21.2,7.2-25.8,15s-8,28.5-8,28.5c0,0,1.3,5.6,7,18.9s17.2,27,33.7,29.7c15.5,2.5,24.8,1.6,33.1.3l-1.2,78.4M199.4,428.4c-9.7,5.8-20.7,4.9-27.1-5.8-1.2-2.1-1.1-2.1-3.5-6-1.8-2.9-6.8-5.1-6.8-5.1,0,0,1.4-1.3,2.6-2.6,3.6-3.9,2-11.2,11.8-17.1s22.7-1.9,29.1,8.8,3.6,21.9-6.1,27.8h0Z"/>
  <line class="st1" x1="233.8" y1="354.1" x2="229.8" y2="347.8"/>
  <path class="st5" d="M158.8,410.4s1.3-21.6-16.7-28.2"/>
  <ellipse class="st28" cx="109.5" cy="367.9" rx="13.3" ry="3.4" transform="translate(-270.9 316.8) rotate(-65.8)"/>
  <path class="st28" d="M138.2,391.7l-11.1-2c-.8-.1-1.7-.4-2.5-.7l-20.5-8.8,10.9-24.2,20.2,9.5c.8.4,1.5.8,2.2,1.3l8.8,6.9c1.4,1,2.5,2.4,3.2,4,2.1,5.5-.7,11.7-6.2,13.9-1.6.4-3.3.5-5,.2Z"/>
  <rect class="st38" x="92.4" y="356.4" width="19.3" height="16.3" transform="translate(476.4 421) rotate(114.2)"/>
  <ellipse class="st38" cx="94.7" cy="361.2" rx="9.7" ry="2.5" transform="translate(-273.6 299.3) rotate(-65.8)"/>
  <ellipse class="st38" cx="109.5" cy="367.9" rx="9.7" ry="2.5" transform="translate(-270.9 316.8) rotate(-65.8)"/>
  <ellipse class="st28" cx="95.2" cy="361.4" rx="7.6" ry="2" transform="translate(-273.4 299.8) rotate(-65.8)"/>
  <path class="st8" d="M287.6,539.7v-76.4c0-21.9-2.6-48.3-13.1-67.8s-19.1-32.6-19.1-32.6l-25.8-43.4-2.2,1c-4.1,1.8-6.2,6.6-4.6,10.8l6.9,16.5-27.1-43.8-5.4,3.1c-6.5,3.7-8.7,12-5,18.5,0,0,0,.1.1.2l8.5,15.6"/>
  <g class="st31">
    <g>
      <rect class="st27" x="228" y="375.5" width="164.6" height="290.3" transform="translate(620.6 1041.4) rotate(180)"/>
      <path class="st7" d="M263.9,624.8l6.4,28.7c.9,4.2,1.4,8.5,1.4,12.8v9"/>
      <line class="st7" x1="276.2" y1="622" x2="276.2" y2="637.1"/>
      <path class="st7" d="M288.6,619.1v10.8c0,2.8-.4,5.6-1,8.4l-2.6,11c-.7,2.8-1,5.6-1,8.5v4.4"/>
      <path class="st7" d="M309.7,595.2l-5.1,17.6c-2.4,8.4-4.2,17-5.3,25.8l-2.9,29.6"/>
      <line class="st7" x1="314.2" y1="642.8" x2="318.4" y2="616.3"/>
      <line class="st7" x1="339.7" y1="614" x2="339.7" y2="632.3"/>
      <path class="st7" d="M365.8,618.2l2.7,9c2,6.6,2.9,13.4,2.9,20.2v11.6"/>
      <path class="st7" d="M380,619.5l2,4.9c1.6,4.1,2.5,8.5,2.5,12.9v2.7"/>
      <path class="st7" d="M351.8,615.9l1.4,5.8c.3,1.1.5,2.3.7,3.4l1,6.7"/>
      <path class="st7" d="M356.3,641.2l1.6,7.2c.6,2.6.9,5.2,1.1,7.9l.4,7"/>
      <path class="st7" d="M339.7,641.2v9.9c0,11.6-2.7,23-8,33.4l-12.7,24.9"/>
      <line class="st7" x1="320.2" y1="607.5" x2="320.2" y2="607.5"/>
      <line class="st7" x1="333.4" y1="606.9" x2="333.4" y2="606.9"/>
      <line class="st7" x1="328.7" y1="617.5" x2="328.7" y2="617.5"/>
      <line class="st7" x1="327.7" y1="628.5" x2="327.7" y2="628.5"/>
      <line class="st7" x1="327.7" y1="637.5" x2="327.7" y2="641.5"/>
      <line class="st7" x1="302.6" y1="582.8" x2="302.6" y2="582.8"/>
      <line class="st7" x1="313.2" y1="570.5" x2="307.9" y2="575.7"/>
      <line class="st7" x1="321.1" y1="562.5" x2="321.1" y2="562.5"/>
      <line class="st7" x1="308.8" y1="556.4" x2="308.8" y2="556.4"/>
      <line class="st7" x1="268.3" y1="530.9" x2="268.3" y2="530.9"/>
      <line class="st7" x1="257.7" y1="530" x2="257.7" y2="530"/>
      <line class="st7" x1="248" y1="523.8" x2="248" y2="523.8"/>
      <line class="st7" x1="278" y1="509.7" x2="278" y2="509.7"/>
      <line class="st7" x1="367.7" y1="506.2" x2="367.7" y2="506.2"/>
      <line class="st7" x1="354.5" y1="511.5" x2="354.5" y2="511.5"/>
      <line class="st7" x1="339.6" y1="515" x2="339.6" y2="515"/>
      <line class="st7" x1="316.7" y1="518.5" x2="316.7" y2="518.5"/>
      <line class="st7" x1="313.7" y1="527.5" x2="313.7" y2="527.5"/>
      <line class="st7" x1="307.7" y1="515.5" x2="307.7" y2="515.5"/>
      <line class="st7" x1="307.7" y1="505.5" x2="307.7" y2="505.5"/>
      <line class="st7" x1="297.7" y1="507.5" x2="297.7" y2="507.5"/>
      <line class="st7" x1="317.7" y1="507.5" x2="317.7" y2="507.5"/>
      <line class="st7" x1="319.3" y1="535.2" x2="319.3" y2="535.2"/>
      <line class="st7" x1="337.8" y1="498.3" x2="338.7" y2="505.3"/>
      <line class="st7" x1="370.4" y1="497.4" x2="370.4" y2="497.4"/>
      <line class="st7" x1="361.5" y1="485.1" x2="361.5" y2="485.1"/>
      <line class="st7" x1="362.5" y1="474.1" x2="362.5" y2="474.1"/>
      <line class="st7" x1="352.5" y1="477.1" x2="352.5" y2="477.1"/>
      <line class="st7" x1="350.5" y1="466.1" x2="350.5" y2="466.1"/>
      <line class="st7" x1="370.5" y1="466.1" x2="370.5" y2="466.1"/>
      <line class="st7" x1="361.5" y1="464.1" x2="361.5" y2="464.1"/>
      <line class="st7" x1="354.5" y1="454.1" x2="354.5" y2="454.1"/>
      <line class="st7" x1="285.3" y1="478.5" x2="285.3" y2="478.5"/>
      <line class="st7" x1="293" y1="468.5" x2="293" y2="468.5"/>
      <line class="st7" x1="316.7" y1="584.5" x2="316.7" y2="584.5"/>
      <line class="st7" x1="286.8" y1="588.9" x2="286.8" y2="588.9"/>
      <line class="st7" x1="348.4" y1="604.8" x2="348.4" y2="604.8"/>
      <line class="st7" x1="374.8" y1="608.3" x2="374.8" y2="608.3"/>
      <line class="st7" x1="388.9" y1="610.1" x2="388.9" y2="610.1"/>
      <path class="st7" d="M295.4,608.3c.2-4.4.9-8.8,2.2-13.1"/>
      <path class="st7" d="M281.9,610.9c.5-5.3,1.3-10.5,2.6-15.7"/>
      <path class="st7" d="M322.2,599.3h0c0-3.8,1.1-7.5,3.3-10.6l.3-.4c1.3-1.9,3-3.6,4.9-4.9"/>
      <path class="st7" d="M362.4,610.1l-5.9-15.9c-1.7-6.4-1.5-9.4-.3-15.8"/>
      <path class="st7" d="M339.7,597.9l-.4-3.5c-.6-5.1.3-10.3,2.6-14.9h0"/>
      <path class="st7" d="M380.6,495.4l-5.9,17.6c-4.1,12.2-10.4,23.5-18.7,33.3l-5.6,6.7c-4.2,5-8.9,9.5-13.9,13.6l-9.4,7.1c-1,.7-1.9,1.5-2.8,2.3l-2.9,2.7"/>
      <path class="st7" d="M349.2,570.3l17.5-20.4"/>
      <path class="st7" d="M369,565.1l-.6,1.9c-2.5,7.7-2.7,16-.5,23.8.3,1,.6,1.9,1,2.9h0c0,.1,2.9,7.5,2.9,7.5"/>
      <path class="st7" d="M376.6,575.9c.5,4.8,1.4,9.5,2.8,14.2,1.6,4.4,3.6,8.7,5.9,12.8"/>
      <line class="st7" x1="327.4" y1="558" x2="339.1" y2="547.8"/>
      <path class="st7" d="M345.2,543.4l3.5-3.8c1.5-1.7,3-3.5,4.4-5.3l3.1-4.2"/>
      <path class="st7" d="M349.9,522.6l2-.6c5.3-1.5,7.5-3.6,11.3-7.6h0"/>
      <path class="st7" d="M341.9,527c-6.9,8.5-14.9,16.2-23.7,22.8"/>
      <line class="st7" x1="372.4" y1="489.8" x2="376.6" y2="474.5"/>
      <path class="st7" d="M302.5,562.4c-3.8,3.8-7.1,7.9-9.9,12.4-4,6.8-4,7.9-4,7.9"/>
      <path class="st7" d="M346.9,489.1s7.6,3,8.8,13.1"/>
      <path class="st7" d="M328,507s2.7,13-2,21.3"/>
      <path class="st7" d="M274.5,540.7s9.4,9.1,12.3,15.7"/>
      <path class="st7" d="M294.2,554l-.6-1.6c-4.3-11.7-11.4-22.2-20.7-30.6l-.6-.6"/>
      <path class="st7" d="M306,543.4s-1.7-16.3-6.7-23.4"/>
      <line class="st7" x1="289.4" y1="563.4" x2="289.4" y2="563.4"/>
      <line class="st7" x1="279.7" y1="572.2" x2="279.7" y2="572.2"/>
      <line class="st7" x1="278.8" y1="562.5" x2="278.8" y2="562.5"/>
      <line class="st7" x1="234" y1="559" x2="234" y2="559"/>
      <line class="st7" x1="234.8" y1="599.5" x2="234.8" y2="599.5"/>
      <line class="st7" x1="214.6" y1="570.5" x2="214.6" y2="570.5"/>
      <line class="st7" x1="206.7" y1="582.8" x2="206.7" y2="582.8"/>
      <path class="st7" d="M287.3,514.4c-2.5-7.7-1.7-16.2,2.2-23.3"/>
      <path class="st7" d="M278.8,489.8s-9.7,15.7-22.7,27"/>
      <path class="st7" d="M266.2,615.9l-1.5-2.8c-5-9.5-12.9-17.1-22.5-21.8-3.3-1.6-6.8-2.8-10.4-3.5l-14.8-3.3"/>
      <path class="st7" d="M271.7,599.1s-4.5-9.5-10.5-14.6"/>
      <path class="st7" d="M249.7,578c-7.3-3.2-15-5.5-22.9-6.7"/>
      <line class="st7" x1="271.7" y1="556.4" x2="261.2" y2="548.5"/>
      <path class="st7" d="M249.7,538.4s-3.9,6.4-9,13.6"/>
      <path class="st7" d="M249.7,561.8l3.2,1.8c4,2.3,7.8,4.8,11.5,7.5l4.9,3.6"/>
      <path class="st7" d="M241.6,532.6l-5.6,6.9c-8.6,10.8-19.7,19.3-32.3,25l-1.3.6"/>
      <path class="st7" d="M215.1,540.7s14.1-12.7,21-19.8,21-24.2,21-24.2"/>
      <line class="st7" x1="383" y1="520.2" x2="383" y2="520.2"/>
      <line class="st7" x1="372.9" y1="539.4" x2="372.9" y2="539.4"/>
      <line class="st7" x1="391.6" y1="583.9" x2="391.6" y2="583.9"/>
      <line class="st7" x1="378.6" y1="529.2" x2="378.6" y2="529.2"/>
      <path class="st7" d="M387.1,572.4s-4.5-9.5-10.5-14.6"/>
      <line class="st7" x1="394.1" y1="544.7" x2="383.6" y2="536.8"/>
      <path class="st7" d="M378.8,546.4l3.2,1.9c4,2.3,7.8,4.8,11.5,7.5l4.8,3.5"/>
      <path class="st7" d="M341.1,474l-2.1,3.7c-3,5.5-6.7,10.6-10.8,15.3-1.6,1.8-3.3,3.6-5.2,5.1"/>
      <path class="st7" d="M330,468.6c-4,5.9-8.6,11.4-13.6,16.4-6.6,6.5-10.5,9.9-14.4,11.6"/>
      <line class="st7" x1="299.2" y1="481.7" x2="317.9" y2="462"/>
      <line class="st7" x1="263.9" y1="489.8" x2="271.7" y2="478"/>
      <line class="st7" x1="254.3" y1="618.2" x2="235.3" y2="638.9"/>
      <line class="st7" x1="241.6" y1="611.7" x2="214.7" y2="638.9"/>
      <line class="st7" x1="227.1" y1="605.8" x2="206.4" y2="623.4"/>
      <line class="st7" x1="289.5" y1="522.6" x2="293.5" y2="532.6"/>
      <path class="st7" d="M256.1,462.8h1.3c6.9,0,13.6,2.1,19.2,5.9l3.1,2.1"/>
      <line class="st7" x1="300.2" y1="453" x2="284.8" y2="460.8"/>
      <path class="st7" d="M230.4,337.6l-28.6,6.7c-4.2,1-8.4,1.5-12.7,1.5h-9"/>
      <line class="st7" x1="233.3" y1="349.9" x2="218.3" y2="350"/>
      <path class="st7" d="M236.4,362.3h-10.8c-2.8.2-5.6-.1-8.4-.8l-11.1-2.4c-2.8-.6-5.6-.9-8.5-.9h-4.4"/>
      <path class="st7" d="M260.5,383.2l-17.6-4.9c-8.5-2.4-17.1-4-25.8-5l-18.1-2"/>
      <line class="st7" x1="213" y1="387.1" x2="240.5" y2="388"/>
      <line class="st7" x1="241.8" y1="401" x2="216.6" y2="401.3"/>
      <line class="st7" x1="242.1" y1="413.3" x2="220.8" y2="413.5"/>
      <path class="st7" d="M238.2,439.5l-9,2.8c-6.5,2.1-13.3,3.1-20.2,3.1h-11.6"/>
      <path class="st7" d="M237,453.7l-4.9,2c-4.1,1.7-8.5,2.6-12.9,2.7h-2.7"/>
      <path class="st7" d="M240.3,425.4l-5.8,1.5c-1.1.3-2.3.5-3.4.7l-6.7,1"/>
      <path class="st7" d="M208.8,458.6h-2.1c-8.6.1-17.1-1.4-25.2-4.4l-44-16.2"/>
      <path class="st7" d="M215,430.2l-7.2,1.6c-2.6.6-5.3,1-7.9,1.2l-7,.5"/>
      <path class="st7" d="M214.9,413.6h-9.9c-11.6.2-23.1-2.4-33.5-7.5l-25-12.4"/>
      <line class="st7" x1="202.2" y1="422.5" x2="186" y2="423.7"/>
      <path class="st7" d="M202.9,387.2h-.3c-8.4.1-16.8-1.4-24.6-4.4h-.3c-5.4-2.2-10.4-4.9-15.1-8.3l-7.9-5.7"/>
      <path class="st7" d="M193.7,397.8l-13.6-2.5c-4-.7-8-1.8-11.8-3.3l-4-1.5"/>
      <path class="st7" d="M175.9,367.3l-3.7-1.6c-5.8-2.5-11-6.1-15.4-10.7l-4-4.2"/>
      <path class="st7" d="M168.6,346.1l-7.3-1.4c-3.5-.6-6.8-1.8-10-3.3l-4.6-2.3"/>
      <path class="st7" d="M175.1,441.6l-7.4-2.7c-4.7-1.8-9.2-4.2-13.2-7.2h0c-5-4-11.1-6.5-17.5-7.2l-7.6-.8"/>
      <path class="st7" d="M176.2,423.8h0c-2.4,0-4.7-.4-7-.9-3-.7-6-1.7-8.8-2.9l-7.3-3c-3.7-1.5-7.5-2.6-11.4-3.4l-8.1-1.6c-2.8-.5-5.5-.9-8.3-1h-3.1"/>
      <line class="st7" x1="249.3" y1="393.7" x2="249.3" y2="393.7"/>
      <line class="st7" x1="205.4" y1="400.4" x2="205.4" y2="400.4"/>
      <line class="st7" x1="182.9" y1="434.1" x2="182.9" y2="434.1"/>
      <line class="st7" x1="137.5" y1="401.6" x2="137.5" y2="401.6"/>
      <line class="st7" x1="149.6" y1="405.5" x2="149.6" y2="405.5"/>
      <line class="st7" x1="151.3" y1="383.5" x2="151.3" y2="383.5"/>
      <line class="st7" x1="187.5" y1="370.7" x2="187.5" y2="370.7"/>
      <line class="st7" x1="183.8" y1="358.4" x2="183.8" y2="358.4"/>
      <line class="st7" x1="174.1" y1="355.9" x2="174.1" y2="355.9"/>
      <line class="st7" x1="176.5" y1="333" x2="176.5" y2="333"/>
      <line class="st7" x1="196.7" y1="335.4" x2="196.7" y2="335.4"/>
      <line class="st7" x1="187" y1="327.5" x2="187" y2="327.5"/>
      <line class="st7" x1="252.1" y1="406.9" x2="252.1" y2="406.9"/>
      <line class="st7" x1="272.9" y1="375.9" x2="272.9" y2="375.9"/>
      <line class="st7" x1="285.3" y1="386.3" x2="280" y2="381.1"/>
      <line class="st7" x1="293.3" y1="394.1" x2="293.3" y2="394.1"/>
      <line class="st7" x1="299.4" y1="381.7" x2="299.4" y2="381.7"/>
      <line class="st7" x1="324.4" y1="341" x2="324.4" y2="341"/>
      <line class="st7" x1="325.2" y1="330.4" x2="325.2" y2="330.4"/>
      <line class="st7" x1="331.2" y1="320.6" x2="331.2" y2="320.6"/>
      <line class="st7" x1="345.7" y1="350.4" x2="345.7" y2="350.4"/>
      <line class="st7" x1="341.1" y1="412.1" x2="341.1" y2="412.1"/>
      <line class="st7" x1="339.3" y1="390.2" x2="339.3" y2="390.2"/>
      <line class="st7" x1="326.6" y1="391" x2="326.6" y2="391"/>
      <line class="st7" x1="357.8" y1="410.1" x2="350.7" y2="411.1"/>
      <line class="st7" x1="359" y1="442.7" x2="359" y2="442.7"/>
      <line class="st7" x1="319.3" y1="436.6" x2="319.3" y2="436.6"/>
      <line class="st7" x1="335.3" y1="421.6" x2="335.3" y2="421.6"/>
      <line class="st7" x1="377" y1="357.4" x2="377" y2="357.4"/>
      <line class="st7" x1="387" y1="365" x2="387" y2="365"/>
      <line class="st7" x1="271.3" y1="390" x2="271.3" y2="390"/>
      <line class="st7" x1="266.6" y1="360.1" x2="266.6" y2="360.1"/>
      <line class="st7" x1="251.4" y1="421.9" x2="251.4" y2="421.9"/>
      <line class="st7" x1="248" y1="436" x2="248" y2="436"/>
      <line class="st7" x1="248.2" y1="448.3" x2="248.2" y2="448.3"/>
      <line class="st7" x1="246.6" y1="462.4" x2="246.6" y2="462.4"/>
      <line class="st7" x1="187.4" y1="444.6" x2="183.9" y2="443.8"/>
      <path class="st7" d="M247.3,368.9c4.4.1,8.8.8,13.1,2"/>
      <path class="st7" d="M244.5,355.5c5.3.4,10.6,1.2,15.7,2.4"/>
      <path class="st7" d="M256.6,393.7h0c3.8,0,7.5,1.1,10.6,3.2l.4.3c1.9,1.3,3.6,2.9,4.9,4.9"/>
      <path class="st7" d="M256,432.2l6-2.3c6.4-1.8,9.4-1.6,15.8-.4"/>
      <path class="st7" d="M258.2,413.1l3.5-.4c5.1-.6,10.3.2,14.9,2.4h0"/>
      <path class="st7" d="M310,428.9l-6.7-5.6c-5-4.1-9.6-8.8-13.8-13.8l-7.2-9.3c-.8-1-1.5-1.9-2.4-2.8l-2.8-2.9"/>
      <path class="st7" d="M285.9,422.4l20.6,19.2c9.1,7.8,19.5,13.9,30.6,18.1"/>
      <path class="st7" d="M291.3,442.1l-1.9-.6c-7.7-2.4-16-2.5-23.8-.2-1,.3-1.9.6-2.9,1h-.1c0,0-7.4,3-7.4,3"/>
      <path class="st7" d="M280.6,449.8c-4.8.6-9.5,1.6-14.1,3"/>
      <line class="st7" x1="298" y1="400.4" x2="308.3" y2="411.9"/>
      <path class="st7" d="M312.7,418l3.9,3.5c1.7,1.5,3.5,3,5.3,4.3l4.2,3.1"/>
      <path class="st7" d="M329.1,414.5c-8.6-6.8-16.4-14.7-23.1-23.4"/>
      <line class="st7" x1="366.7" y1="444.6" x2="382" y2="448.7"/>
      <line class="st7" x1="367" y1="455.6" x2="390" y2="460.7"/>
      <path class="st7" d="M293.3,375.5c-3.8-3.7-8-7-12.5-9.7-6.9-4-8-3.9-8-3.9"/>
      <path class="st7" d="M365,419.1s-10.8,18.8-23,29.6"/>
      <path class="st7" d="M349,400.4s-13,2.9-21.3-1.8"/>
      <path class="st7" d="M314.7,347.3s-9,9.5-15.6,12.5"/>
      <path class="st7" d="M301.6,367.2l1.6-.6c11.7-4.5,22.1-11.7,30.4-21.1l.6-.6"/>
      <path class="st7" d="M314.3,384.8s16.2-1.9,23.4-7"/>
      <line class="st7" x1="292.1" y1="362.5" x2="292.1" y2="362.5"/>
      <line class="st7" x1="283.2" y1="352.9" x2="283.2" y2="352.9"/>
      <line class="st7" x1="292.9" y1="351.9" x2="292.9" y2="351.9"/>
      <line class="st7" x1="295.9" y1="307" x2="295.9" y2="307"/>
      <line class="st7" x1="255.4" y1="308.3" x2="255.4" y2="308.3"/>
      <line class="st7" x1="284.2" y1="287.7" x2="284.2" y2="287.7"/>
      <line class="st7" x1="271.8" y1="279.9" x2="271.8" y2="279.9"/>
      <path class="st7" d="M341,362.8c7.7-2.6,16.1-1.9,23.3,1.9"/>
      <path class="st7" d="M365.6,351s-15.8-9.5-27.2-22.4"/>
      <path class="st7" d="M239.3,339.8l2.7-1.5c12.9-6.8,22-18.9,25-33.1l3.1-14.9"/>
      <path class="st7" d="M256.2,345.1s9.5-4.6,14.5-10.6"/>
      <path class="st7" d="M277,322.9c3.1-7.3,5.3-15,6.4-22.9"/>
      <line class="st7" x1="298.9" y1="344.7" x2="306.7" y2="334.1"/>
      <path class="st7" d="M316.7,322.5s-6.4-3.8-13.7-8.8"/>
      <path class="st7" d="M293.3,322.7l-1.8,3.2c-2.3,4-4.7,7.9-7.4,11.6l-3.5,4.9"/>
      <path class="st7" d="M322.4,314.3l-6.9-5.4c-10.9-8.5-19.6-19.5-25.4-32-.2-.5-.4-.9-.6-1.3"/>
      <path class="st7" d="M314,287.9s12.9,14,20,20.8,24.4,20.7,24.4,20.7"/>
      <path class="st7" d="M346.8,373.6l1.8,5.4c4.1,12.1,12.4,22.2,23.4,28.7"/>
      <path class="st7" d="M387.4,402c-6.1-2.8-11.7-6.7-16.5-11.4-4.9-4.7-8.8-10.2-11.8-16.3"/>
      <line class="st7" x1="374" y1="371.3" x2="393.8" y2="391.8"/>
      <line class="st7" x1="365.5" y1="336.1" x2="377.3" y2="343.8"/>
      <line class="st7" x1="236.9" y1="328" x2="216" y2="309.2"/>
      <line class="st7" x1="243.3" y1="315.2" x2="215.8" y2="288.6"/>
      <line class="st7" x1="249" y1="300.6" x2="231.2" y2="280.1"/>
      <line class="st7" x1="329.9" y1="367.1" x2="320" y2="371.2"/>
      <path class="st7" d="M392.4,328v1.2c0,6.9-1.9,13.6-5.7,19.3l-2,3.1"/>
      <line class="st7" x1="400.7" y1="373" x2="392.7" y2="357.7"/>
      <path class="st7" d="M350.7,422.4l-4.1,5.1c-3.8,4.7-8.1,9.1-12.7,12.9l-2.8,2.3"/>
      <line class="st7" x1="368.9" y1="430.4" x2="394" y2="443.5"/>
      <path class="st7" d="M401.7,400.4s-10.8,15.5-23.2,21.2"/>
      <path class="st7" d="M409.3,411.8s-11.1,13.5-18.2,16.8"/>
    </g>
  </g>
  <path class="st9" d="M309.7,641h-21.6v-247.9c0-6.9,5.6-12.6,12.6-12.6h8.4l.6,260.5Z"/>
  <path class="st1" d="M288.2,641v-247.9c0-6.9,5.6-12.6,12.6-12.6h83.2"/>
  <g class="st33">
    <g>
      <rect class="st42" x="398.8" y="381.2" width="177.9" height="264.4" transform="translate(975.5 1026.8) rotate(180)"/>
      <polyline class="st4" points="481 389.7 475.8 501 488.2 580.1 513.6 623 524.7 646.1"/>
      <polyline class="st4" points="474.5 389.7 468.2 501 480.6 580.1 506 623 517.1 646.1"/>
      <polygon class="st39" points="448.1 646.5 437.1 623.7 411.6 580.6 399.1 501.1 399.1 501 406.5 389.6 469.5 389.7 462.1 501 474.4 579.6 499.7 622.3 499.8 622.5 510.9 645.6 448.1 646.5"/>
      <polyline class="st4" points="461.6 389.7 453.1 501 465.4 580.1 490.8 623 501.9 646.1"/>
      <polyline class="st4" points="455.1 389.7 445.5 501 457.9 580.1 483.3 623 494.3 646.1"/>
      <polyline class="st4" points="448.6 389.7 437.9 501 450.3 580.1 475.7 623 486.8 646.1"/>
      <polyline class="st4" points="442.1 389.7 430.3 501 442.7 580.1 468.1 623 479.2 646.1"/>
      <polyline class="st4" points="435.7 389.7 422.7 501 435.1 580.1 460.5 623 471.6 646.1"/>
      <polyline class="st4" points="429.2 389.7 415.1 501 427.5 580.1 452.9 623 464 646.1"/>
      <polyline class="st4" points="422.7 389.7 407.6 501 419.9 580.1 445.3 623 456.4 646.1"/>
      <polyline class="st4" points="488 389.7 486.8 517.3 495.7 572.6 493.9 588.3"/>
      <polyline class="st4" points="496.3 389.7 496.5 517.3 505.5 572.6 500.8 599.9"/>
      <polyline class="st4" points="504.7 389.7 506.3 517.3 515.2 572.6 508.4 613.2"/>
      <polyline class="st4" points="513 389.7 516.1 517.3 525 572.6 515.5 627"/>
      <polyline class="st4" points="521.4 389.7 525.8 517.3 534.8 572.6 521.6 637.4"/>
      <polyline class="st4" points="529.7 389.7 535.6 517.3 544.5 572.6 530.1 638.8"/>
      <polyline class="st4" points="538 389.7 545.4 517.3 554.3 572.6 537.1 646.1"/>
      <polyline class="st4" points="546.4 389.7 555.2 517.3 564.1 572.6 545.5 645.2"/>
    </g>
  </g>
  <path class="st1" d="M448.4,640.2v-234.3c0-3.9,3.7-7.1,8.3-7.1h89.8"/>
  <g class="st32">
    <g>
      <rect class="st34" x="241.1" y="598.8" width="39.1" height="265" transform="translate(962.1 1064.1) rotate(135)"/>
      <rect class="st37" x="268.8" y="571.1" width="39.1" height="265" transform="translate(989.8 997.3) rotate(135)"/>
      <rect class="st34" x="296.4" y="543.5" width="39.1" height="265" transform="translate(1017.4 930.6) rotate(135)"/>
      <rect class="st37" x="-12.9" y="478" width="39.1" height="265" transform="translate(443 1037.6) rotate(135)"/>
      <rect class="st34" x="14.7" y="450.4" width="39.1" height="265" transform="translate(470.7 970.8) rotate(135)"/>
      <rect class="st37" x="42.4" y="422.7" width="39.1" height="265" transform="translate(498.3 904.1) rotate(135)"/>
      <rect class="st34" x="70" y="395.1" width="39.1" height="265" transform="translate(525.9 837.4) rotate(135)"/>
      <rect class="st37" x="97.7" y="367.5" width="39.1" height="265" transform="translate(553.6 770.6) rotate(135)"/>
      <rect class="st34" x="125.3" y="339.8" width="39.1" height="265" transform="translate(581.2 703.9) rotate(135)"/>
      <rect class="st37" x="324.1" y="515.8" width="39.1" height="265" transform="translate(1045.1 863.8) rotate(135)"/>
      <rect class="st34" x="351.7" y="488.2" width="39.1" height="265" transform="translate(1072.7 797.1) rotate(135)"/>
      <rect class="st37" x="379.4" y="460.6" width="39.1" height="265" transform="translate(1100.4 730.4) rotate(135)"/>
      <rect class="st34" x="407" y="432.9" width="39.1" height="265" transform="translate(1128 663.6) rotate(135)"/>
      <rect class="st37" x="434.7" y="405.3" width="39.1" height="265" transform="translate(1155.6 596.9) rotate(135)"/>
      <rect class="st34" x="462.3" y="377.6" width="39.1" height="265" transform="translate(1183.3 530.1) rotate(135)"/>
      <rect class="st37" x="490" y="350" width="39.1" height="265" transform="translate(1210.9 463.4) rotate(135)"/>
      <rect class="st34" x="517.6" y="322.3" width="39.1" height="265" transform="translate(1238.6 396.7) rotate(135)"/>
      <rect class="st37" x="545.3" y="294.7" width="39.1" height="265" transform="translate(1266.3 329.9) rotate(135)"/>
      <rect class="st34" x="572.9" y="267.1" width="39.1" height="265" transform="translate(1293.9 263.2) rotate(135)"/>
      <rect class="st37" x="600.5" y="239.4" width="39.1" height="265" transform="translate(1321.5 196.5) rotate(135)"/>
      <rect class="st34" x="628.2" y="211.8" width="39.1" height="265" transform="translate(1349.2 129.7) rotate(135)"/>
      <rect class="st34" x="610.7" y="604.1" width="39.1" height="265" transform="translate(1596.7 811.8) rotate(135)"/>
      <rect class="st37" x="638.3" y="576.4" width="39.1" height="265" transform="translate(1624.4 745) rotate(135)"/>
      <rect class="st34" x="666" y="548.8" width="39.1" height="265" transform="translate(1652 678.3) rotate(135)"/>
      <rect class="st37" x="152.9" y="312.2" width="39.1" height="265" transform="translate(608.9 637.2) rotate(135)"/>
      <rect class="st34" x="180.6" y="284.5" width="39.1" height="265" transform="translate(636.5 570.4) rotate(135)"/>
      <rect class="st37" x="208.2" y="256.9" width="39.1" height="265" transform="translate(664.2 503.7) rotate(135)"/>
      <rect class="st34" x="235.9" y="229.2" width="39.1" height="265" transform="translate(691.8 436.9) rotate(135)"/>
      <rect class="st37" x="263.5" y="201.6" width="39.1" height="265" transform="translate(719.5 370.2) rotate(135)"/>
      <rect class="st34" x="291.2" y="173.9" width="39.1" height="265" transform="translate(747.1 303.5) rotate(135)"/>
    </g>
  </g>
  <path class="st11" d="M228,641h-24.6v-137.9c0-6.9,5.6-12.6,12.6-12.6h11.4l.6,150.5Z"/>
  <path class="st1" d="M203.5,641v-137.9c0-6.9,5.6-12.6,12.6-12.6h83.2"/>
</svg>