<svg width="840" height="689" viewBox="0 0 840 689" fill="none" xmlns="http://www.w3.org/2000/svg">
<rect width="840" height="689" fill="#F1F0E5"/>
<g clip-path="url(#clip0_68_187)">
<g clip-path="url(#clip1_68_187)">
<path d="M420 273H509V362H420V273Z" fill="#C39E88"/>
<path d="M474.995 231L376 329.995" stroke="#F1F0E5" stroke-width="5"/>
<path d="M487.723 243.728L388.728 342.723" stroke="#F1F0E5" stroke-width="5"/>
<path d="M500.451 256.456L401.456 355.451" stroke="#F1F0E5" stroke-width="5"/>
<path d="M513.179 269.184L414.184 368.179" stroke="#F1F0E5" stroke-width="5"/>
<path d="M525.907 281.912L426.912 380.907" stroke="#F1F0E5" stroke-width="5"/>
<path d="M538.635 294.64L439.64 393.635" stroke="#F1F0E5" stroke-width="5"/>
<path d="M551.362 307.368L452.367 406.363" stroke="#F1F0E5" stroke-width="5"/>
<path d="M564.091 320.095L465.096 419.09" stroke="#F1F0E5" stroke-width="5"/>
<circle cx="496" cy="286" r="7" fill="#F1F0E5"/>
<rect x="458" y="292" width="12" height="52" fill="#F1F0E5"/>
</g>
<path d="M331 273H420V375C420 386.046 411.046 395 400 395H351C339.954 395 331 386.046 331 375V273Z" fill="#BAAB92"/>
<rect x="351" y="292" width="12" height="82" fill="#F1F0E5"/>
<circle cx="377" cy="318" r="20" stroke="#F1F0E5" stroke-width="12"/>
<g clip-path="url(#clip2_68_187)">
<path d="M242 293C242 281.954 250.954 273 262 273H331V362H262C250.954 362 242 353.046 242 342V293Z" fill="#8A645A"/>
<rect x="242" y="292" width="39" height="9" fill="#544540"/>
<rect x="241" y="301" width="30" height="89" fill="#544540"/>
<rect x="271" y="323" width="60" height="87" fill="#544540"/>
<path d="M303 318C303 306.954 294.27 298 283.5 298C272.73 298 264 306.954 264 318C264 329.046 272.73 338 283.5 338C289.088 338 294.127 335.589 297.682 331.727" stroke="#F1F0E5" stroke-width="12"/>
<path d="M263 312H299.5L309 318V323H263V312Z" fill="#F1F0E5"/>
</g>
<path d="M578 274C588.493 274 597 282.507 597 293V342C597 352.493 588.493 361 578 361H510V274H578Z" stroke="#BAAB92" stroke-width="2"/>
<path d="M568.283 304C564.653 300.297 559.595 298 554 298C542.954 298 534 306.954 534 318C534 329.046 542.954 338 554 338C559.595 338 564.653 335.703 568.283 332" stroke="#544540" stroke-width="12"/>
<path d="M509.771 416.941V387.826H513.796V391.258H514.141C514.379 390.817 514.724 390.307 515.174 389.728C515.625 389.149 516.25 388.644 517.049 388.212C517.849 387.771 518.906 387.55 520.22 387.55C521.929 387.55 523.455 387.982 524.797 388.846C526.139 389.71 527.191 390.955 527.954 392.582C528.726 394.208 529.112 396.166 529.112 398.454C529.112 400.743 528.73 402.705 527.967 404.341C527.205 405.967 526.157 407.222 524.824 408.104C523.492 408.977 521.971 409.414 520.261 409.414C518.975 409.414 517.922 409.198 517.104 408.766C516.296 408.334 515.662 407.829 515.202 407.25C514.742 406.671 514.389 406.156 514.141 405.706H513.892V416.941H509.771ZM513.81 398.413C513.81 399.902 514.026 401.207 514.458 402.328C514.89 403.449 515.514 404.327 516.332 404.961C517.15 405.586 518.152 405.899 519.338 405.899C520.569 405.899 521.598 405.572 522.426 404.92C523.253 404.258 523.878 403.362 524.3 402.232C524.732 401.101 524.948 399.828 524.948 398.413C524.948 397.016 524.737 395.762 524.314 394.65C523.901 393.538 523.276 392.66 522.439 392.017C521.612 391.373 520.578 391.052 519.338 391.052C518.143 391.052 517.132 391.359 516.305 391.975C515.487 392.591 514.867 393.45 514.444 394.553C514.021 395.656 513.81 396.943 513.81 398.413Z" fill="#544540"/>
<path d="M537.852 380.768V409H533.73V380.768H537.852Z" fill="#544540"/>
<path d="M549.559 409.469C548.217 409.469 547.004 409.221 545.92 408.725C544.835 408.219 543.976 407.488 543.342 406.533C542.717 405.577 542.404 404.405 542.404 403.017C542.404 401.823 542.634 400.839 543.094 400.067C543.553 399.295 544.173 398.684 544.955 398.234C545.736 397.783 546.609 397.443 547.574 397.214C548.539 396.984 549.522 396.809 550.524 396.69C551.792 396.543 552.822 396.423 553.612 396.331C554.402 396.23 554.977 396.069 555.335 395.849C555.693 395.628 555.873 395.27 555.873 394.774V394.677C555.873 393.473 555.533 392.54 554.853 391.879C554.182 391.217 553.18 390.886 551.847 390.886C550.46 390.886 549.366 391.194 548.566 391.81C547.776 392.416 547.229 393.092 546.926 393.836L543.052 392.954C543.512 391.667 544.183 390.629 545.065 389.838C545.956 389.039 546.981 388.46 548.139 388.101C549.297 387.734 550.515 387.55 551.792 387.55C552.638 387.55 553.534 387.651 554.48 387.853C555.436 388.046 556.328 388.405 557.155 388.929C557.991 389.452 558.676 390.201 559.209 391.176C559.742 392.141 560.008 393.395 560.008 394.939V409H555.983V406.105H555.818C555.551 406.638 555.151 407.162 554.618 407.677C554.085 408.192 553.401 408.619 552.564 408.959C551.728 409.299 550.726 409.469 549.559 409.469ZM550.455 406.16C551.595 406.16 552.569 405.935 553.378 405.485C554.195 405.035 554.816 404.446 555.239 403.72C555.671 402.985 555.886 402.199 555.886 401.363V398.634C555.739 398.781 555.455 398.919 555.032 399.047C554.618 399.167 554.145 399.272 553.612 399.364C553.079 399.447 552.56 399.525 552.054 399.599C551.549 399.663 551.126 399.718 550.786 399.764C549.986 399.865 549.256 400.035 548.594 400.274C547.941 400.513 547.418 400.858 547.022 401.308C546.636 401.749 546.443 402.337 546.443 403.073C546.443 404.093 546.82 404.865 547.574 405.389C548.327 405.903 549.288 406.16 550.455 406.16Z" fill="#544540"/>
<path d="M569.62 396.428V409H565.498V387.826H569.455V391.272H569.717C570.204 390.151 570.967 389.25 572.005 388.57C573.053 387.89 574.372 387.55 575.962 387.55C577.405 387.55 578.668 387.853 579.753 388.46C580.837 389.057 581.678 389.949 582.275 391.134C582.873 392.32 583.171 393.786 583.171 395.532V409H579.05V396.028C579.05 394.493 578.65 393.294 577.85 392.43C577.051 391.557 575.952 391.12 574.556 391.12C573.6 391.12 572.75 391.327 572.005 391.741C571.27 392.154 570.686 392.761 570.254 393.561C569.832 394.351 569.62 395.307 569.62 396.428Z" fill="#544540"/>
</g>
<defs>
<clipPath id="clip0_68_187">
<rect width="356" height="144" fill="white" transform="translate(242 273)"/>
</clipPath>
<clipPath id="clip1_68_187">
<path d="M420 273H509V362H420V273Z" fill="white"/>
</clipPath>
<clipPath id="clip2_68_187">
<path d="M242 293C242 281.954 250.954 273 262 273H331V362H262C250.954 362 242 353.046 242 342V293Z" fill="white"/>
</clipPath>
</defs>
</svg>
