<?xml version="1.0" encoding="UTF-8"?>
<svg id="Laag_1" xmlns="http://www.w3.org/2000/svg" version="1.1" viewBox="0 0 240.9 96.3">
  <!-- Generator: Adobe Illustrator 29.5.1, SVG Export Plug-In . SVG Version: 2.1.0 Build 141)  -->
  <defs>
    <style>
      .st0 {
        fill: #0057a3;
      }
    </style>
  </defs>
  <path class="st0" d="M185.2,40.1v-23.4h37.1s-11,23-37.1,23.4M106.6,40.1v-23.4h36.8s-10.4,23-36.8,23.4M135.3,69h0c5.3,5.9,7.6,11.6,7.6,11.6h-36.4v-24.9c13.7.2,23,6.9,28.7,13.3M35.5,40.1s5-18,28-23.4v23.4h-28ZM168.4,0v40.1h-34.4s27.7.3,28.8-40.1h-71.8v40.1h-11.3V0S31.1-2.3,18.7,40.1H3.7l-3.7,15.7h15.4l-3.7,13.2h0l-7.7,27.4h15.4l7.6-27.3h0l3.7-13.3h32.7v40.6h16.1v-40.6h11.4v40.6h71.8s0-.5,0-1.5c-.2-4.2-1.1-16.2-6.8-25.9h0s0,0,0,0c-3.7-6.2-9.3-11.5-18-12.8-1.2-.2-2.6-.3-3.9-.3h34.4v40.6h16.7v-40.6S236.3,57.4,240.9,0h-72.5Z"/>
</svg>